<svg width="367" height="134" viewBox="0 0 367 134" fill="none" xmlns="http://www.w3.org/2000/svg">
<g filter="url(#filter0_d_84_10703)">
<circle cx="67" cy="63" r="59" fill="#F58A07" stroke="black" stroke-width="8"/>
<path d="M64.2545 21.6899C66.3857 20.4564 69.0596 21.1539 71.3267 21.6575C78.4441 23.7567 85.4065 26.3594 92.2916 29.1109C94.6683 30.0345 97.226 31.2551 98.4013 33.6643C99.1055 36.6287 98.1624 39.6126 97.3486 42.4479C95.2948 49.0423 92.9633 55.5526 90.6898 62.0759C92.2656 66.2029 93.7511 70.4656 93.8609 74.9479C93.8609 82.8017 90.8189 90.6941 85.1806 96.2291C78.3279 103.392 67.6259 106.524 57.9895 104.29C49.2381 102.397 41.4426 96.3196 37.703 88.1559C35.21 82.8533 34.6157 76.8726 35.2164 71.0921C36.4177 62.2244 42.0883 54.2092 49.8452 49.8173C50.9367 49.1069 52.377 48.5837 52.8162 47.2402C55.7548 39.5739 57.9831 31.6039 61.7807 24.2928C62.3428 23.2141 63.2082 22.3164 64.2545 21.6899ZM63.628 28.2905C66.1274 27.8901 68.4267 26.5985 69.7185 24.3638C67.0188 23.4144 62.7302 24.7448 63.628 28.2905ZM67.0058 31.5717C64.7001 36.2541 62.8723 41.1821 61.445 46.2069C64.4354 46.2005 67.4773 46.0196 70.3967 46.827C76.0674 47.7699 80.9954 51.025 85.258 54.7258C86.7823 50.4179 88.1966 46.0713 89.6177 41.7312C90.4249 39.1669 90.5219 35.7761 87.8673 34.2648C83.1138 31.8364 77.9403 30.2929 72.8186 28.846C70.4741 28.1098 68.0133 29.4081 67.0058 31.5717ZM49.4706 54.7C44.6073 58.3492 41.0486 63.8714 39.8536 69.8457C39.337 72.2804 40.4027 74.7736 42.5405 76.0458C47.7526 74.5863 50.0647 69.1998 52.7646 65.034C54.476 61.9079 57.8538 60.1188 59.4364 56.9155C60.1339 55.5332 59.953 53.4922 58.3965 52.7819C55.4061 51.1543 52.0863 53.2145 49.4706 54.7Z" fill="black"/>
<path d="M63.628 28.2905C62.7302 24.7448 67.0189 23.4143 69.7186 24.3638C68.4267 26.5985 66.1274 27.8901 63.628 28.2905Z" fill="black"/>
</g>
<path d="M147.664 75.9974L151.147 83.3867C151.429 83.5603 151.776 83.7231 152.189 83.875C152.601 84.0052 153.046 84.1246 153.523 84.2331C154.001 84.3416 154.489 84.4284 154.988 84.4935C155.487 84.5586 155.976 84.5911 156.453 84.5911C157.56 84.5911 158.558 84.4826 159.448 84.2656C160.359 84.0269 161.141 83.7014 161.792 83.2891C162.443 82.855 162.942 82.3342 163.289 81.7266C163.636 81.0972 163.81 80.3919 163.81 79.6107C163.81 78.5907 163.387 77.625 162.54 76.7135C161.716 75.7804 160.544 74.8798 159.025 74.0117L155.542 72.0586C154.305 71.4075 153.144 70.7348 152.059 70.0404C150.995 69.3459 150.062 68.5864 149.259 67.7617C148.456 66.9371 147.816 66.0256 147.339 65.0273C146.883 64.0291 146.655 62.9114 146.655 61.6745C146.655 60.1771 146.948 58.875 147.534 57.7682C148.12 56.6614 148.955 55.75 150.04 55.0338C151.125 54.296 152.428 53.7535 153.947 53.4062C155.487 53.0373 157.191 52.8528 159.057 52.8528C161.922 52.8528 164.786 53.3194 167.651 54.2526L167.521 63.6601H166.186L162.736 56.0104C161.911 55.9019 161.195 55.8151 160.587 55.75C160.001 55.6849 159.513 55.6523 159.122 55.6523C157.951 55.6523 156.931 55.7934 156.063 56.0755C155.216 56.3359 154.511 56.694 153.947 57.1497C153.404 57.5837 152.992 58.0829 152.71 58.6471C152.449 59.2114 152.319 59.7973 152.319 60.4049C152.319 61.1211 152.449 61.7721 152.71 62.3581C152.992 62.9223 153.393 63.4648 153.914 63.9857C154.457 64.5065 155.129 65.0273 155.932 65.5482C156.735 66.0473 157.668 66.579 158.732 67.1432C160.251 67.9679 161.499 68.6406 162.475 69.1614C163.474 69.6823 164.19 70.0946 164.624 70.3984C168.031 72.6771 169.734 75.3029 169.734 78.276C169.734 79.8819 169.344 81.2925 168.563 82.5078C167.803 83.7014 166.794 84.7105 165.535 85.5352C164.298 86.3381 162.898 86.9349 161.336 87.3255C159.773 87.7378 158.2 87.944 156.616 87.944C155.791 87.944 154.901 87.8898 153.947 87.7813C152.992 87.6727 152.037 87.5208 151.082 87.3255C150.127 87.1302 149.205 86.9023 148.315 86.6419C147.447 86.3598 146.677 86.056 146.004 85.7305V75.9974H147.664ZM192.716 102.332V103.667H173.38V102.332L179.402 99.9883V58.875L173.38 56.5312V55.1966L184.708 52.8528L185.392 53.5364V56.8568C186.607 55.3594 187.909 54.3177 189.298 53.7317C190.687 53.1458 192.315 52.8528 194.181 52.8528C195.982 52.8528 197.729 53.2652 199.422 54.0898C201.136 54.8928 202.655 56.0321 203.979 57.5078C205.325 58.9618 206.399 60.8064 207.202 63.0417C208.027 65.2769 208.439 67.7075 208.439 70.3333C208.439 73.3064 207.983 75.9431 207.072 78.2435C206.16 80.5438 204.934 82.3776 203.393 83.7448C201.874 85.0903 200.192 86.1102 198.348 86.8047C196.503 87.4774 194.561 87.8138 192.521 87.8138C189.938 87.8138 187.562 87.3472 185.392 86.4141V99.9883L192.716 102.332ZM192.781 56.2057C191.414 56.2057 190.069 56.5204 188.745 57.1497C187.421 57.7791 186.303 58.658 185.392 59.7864V80.457C186.021 81.694 186.976 82.6706 188.257 83.3867C189.559 84.1029 190.98 84.4609 192.521 84.4609C193.454 84.4609 194.344 84.309 195.19 84.0052C196.036 83.7014 196.861 83.1914 197.664 82.4753C198.467 81.7591 199.161 80.8694 199.747 79.806C200.333 78.7426 200.8 77.408 201.147 75.8021C201.494 74.1745 201.668 72.3516 201.668 70.3333C201.668 66.1233 200.887 62.7161 199.324 60.112C197.762 57.5078 195.581 56.2057 192.781 56.2057ZM230.412 52.8528C232.885 52.8528 235.11 53.276 237.085 54.1224C239.06 54.9687 240.731 56.1623 242.098 57.7031C243.465 59.2222 244.507 61.056 245.223 63.2044C245.961 65.3529 246.329 67.7292 246.329 70.3333C246.329 72.9158 245.971 75.2812 245.255 77.4297C244.539 79.5781 243.497 81.4227 242.13 82.9635C240.763 84.5043 239.092 85.6979 237.117 86.5443C235.142 87.3906 232.907 87.8138 230.412 87.8138C227.894 87.8138 225.648 87.3906 223.673 86.5443C221.698 85.6979 220.027 84.5043 218.66 82.9635C217.293 81.4227 216.251 79.589 215.535 77.4622C214.819 75.3138 214.461 72.9375 214.461 70.3333C214.461 67.7292 214.819 65.3529 215.535 63.2044C216.273 61.056 217.326 59.2222 218.693 57.7031C220.06 56.1623 221.731 54.9687 223.706 54.1224C225.681 53.276 227.916 52.8528 230.412 52.8528ZM223.315 59.7539C221.644 62.4666 220.809 65.993 220.809 70.3333C220.809 72.4818 221.015 74.4566 221.427 76.2578C221.861 78.0373 222.48 79.5781 223.283 80.8802C224.107 82.1606 225.116 83.1589 226.31 83.875C227.504 84.5911 228.871 84.9492 230.412 84.9492C231.952 84.9492 233.33 84.5911 234.546 83.875C235.761 83.1589 236.781 82.1606 237.606 80.8802C238.452 79.5781 239.092 78.0373 239.526 76.2578C239.982 74.4566 240.21 72.4818 240.21 70.3333C240.21 68.2066 239.982 66.2535 239.526 64.4739C239.092 62.6727 238.452 61.1319 237.606 59.8515C236.781 58.5495 235.761 57.5403 234.546 56.8242C233.33 56.0864 231.952 55.7174 230.412 55.7174C227.33 55.7174 224.964 57.0629 223.315 59.7539ZM262.345 58.1914V76.3229C262.345 77.7986 262.454 79.0356 262.671 80.0338C262.909 81.0321 263.246 81.7808 263.68 82.2799C264.135 82.7574 264.613 83.0937 265.112 83.2891C265.611 83.4627 266.208 83.5495 266.902 83.5495C268.205 83.5495 269.29 83.441 270.158 83.224C271.047 82.9852 272.002 82.5512 273.022 81.9219L274.031 84.0052C270.971 86.5443 267.619 87.8138 263.973 87.8138C261.846 87.8138 260.045 86.9783 258.569 85.3073C257.093 83.6146 256.356 81.2491 256.356 78.2109V58.1914L250.301 56.5312V55.1966L256.616 53.862L259.025 44.8776H262.345V53.862H271.883L273.022 54.2526V56.2057L262.345 58.1914ZM289.494 58.1914V76.3229C289.494 77.7986 289.602 79.0356 289.819 80.0338C290.058 81.0321 290.394 81.7808 290.828 82.2799C291.284 82.7574 291.761 83.0937 292.261 83.2891C292.76 83.4627 293.356 83.5495 294.051 83.5495C295.353 83.5495 296.438 83.441 297.306 83.224C298.196 82.9852 299.151 82.5512 300.171 81.9219L301.18 84.0052C298.12 86.5443 294.767 87.8138 291.121 87.8138C288.994 87.8138 287.193 86.9783 285.718 85.3073C284.242 83.6146 283.504 81.2491 283.504 78.2109V58.1914L277.449 56.5312V55.1966L283.764 53.862L286.173 44.8776H289.494V53.862H299.031L300.171 54.2526V56.2057L289.494 58.1914ZM334.448 70.5286H313.387C313.409 72.9592 313.756 75.0751 314.428 76.8763C315.101 78.6775 316.013 80.0881 317.163 81.1081C318.313 82.128 319.572 82.8767 320.939 83.3542C322.328 83.8316 323.836 84.0703 325.464 84.0703C327.721 84.0703 330.14 83.3108 332.723 81.7917L333.732 83.7448C331.909 85.3507 330.086 86.4358 328.263 87C326.44 87.5425 324.368 87.8138 322.046 87.8138C320.027 87.8138 318.085 87.3906 316.219 86.5443C314.353 85.6762 312.714 84.4935 311.303 82.9961C309.893 81.477 308.764 79.6215 307.918 77.4297C307.072 75.2378 306.649 72.8724 306.649 70.3333C306.649 67.9245 306.952 65.7326 307.56 63.7578C308.189 61.7613 309.014 60.1011 310.034 58.7773C311.054 57.4535 312.237 56.3359 313.582 55.4245C314.949 54.513 316.338 53.862 317.749 53.4713C319.181 53.059 320.635 52.8528 322.111 52.8528C323.955 52.8528 325.659 53.2001 327.221 53.8945C328.806 54.5673 330.205 55.5764 331.421 56.9219C332.658 58.2456 333.623 59.9926 334.318 62.1627C335.034 64.3329 335.392 66.8068 335.392 69.5846L334.448 70.5286ZM322.241 56.0104C319.745 56.0104 317.749 56.9978 316.251 58.9726C314.776 60.9475 313.864 63.6493 313.517 67.0781H329.044C329.044 63.6059 328.458 60.8932 327.287 58.9401C326.115 56.987 324.433 56.0104 322.241 56.0104ZM360.099 85.6654V87H340.438V85.6654L346.427 83.3216V58.875L340.438 56.5312V55.1966L351.766 52.8528L352.417 53.5364V57.5403C355.715 54.4153 360.056 52.8528 365.438 52.8528V60.0794L364.103 60.5351L359.35 57.931C358.374 57.931 357.256 58.148 355.998 58.582C354.739 58.9943 353.545 59.602 352.417 60.4049V83.3216L360.099 85.6654Z" fill="black"/>
<path d="M147.664 75.9974L148.946 75.3931L148.563 74.5801H147.664V75.9974ZM151.147 83.3867L149.865 83.991L150.045 84.3727L150.404 84.5938L151.147 83.3867ZM152.189 83.875L151.699 85.2049L151.73 85.2165L151.762 85.2265L152.189 83.875ZM159.448 84.2656L159.784 85.6426L159.795 85.6397L159.807 85.6367L159.448 84.2656ZM161.792 83.2891L162.55 84.4864L162.564 84.4776L162.578 84.4683L161.792 83.2891ZM163.289 81.7266L164.52 82.4297L164.525 82.4205L164.53 82.4112L163.289 81.7266ZM162.54 76.7135L161.478 77.6521L161.49 77.6652L161.502 77.678L162.54 76.7135ZM159.025 74.0117L159.728 72.7811L159.718 72.7755L159.025 74.0117ZM155.542 72.0586L156.235 70.8224L156.218 70.8131L156.202 70.8044L155.542 72.0586ZM152.059 70.0404L151.284 71.2271L151.295 71.2341L152.059 70.0404ZM147.339 65.0273L146.049 65.6159L146.054 65.6274L146.06 65.6388L147.339 65.0273ZM150.04 55.0338L150.821 56.2167L150.829 56.2114L150.837 56.2059L150.04 55.0338ZM153.947 53.4062L154.262 54.7879L154.27 54.7863L154.277 54.7846L153.947 53.4062ZM167.651 54.2526L169.068 54.2722L169.083 53.2283L168.09 52.905L167.651 54.2526ZM167.521 63.6601V65.0775H168.919L168.938 63.6798L167.521 63.6601ZM166.186 63.6601L164.894 64.2429L165.271 65.0775H166.186V63.6601ZM162.736 56.0104L164.028 55.4276L163.703 54.7082L162.921 54.6052L162.736 56.0104ZM160.587 55.75L160.431 57.1586L160.436 57.1592L160.587 55.75ZM156.063 56.0755L156.479 57.4301L156.49 57.4269L156.501 57.4234L156.063 56.0755ZM153.947 57.1497L154.832 58.2565L154.837 58.2523L153.947 57.1497ZM152.71 58.6471L151.442 58.0133L151.432 58.0331L151.423 58.0532L152.71 58.6471ZM152.71 62.3581L151.414 62.9337L151.428 62.9631L151.442 62.9919L152.71 62.3581ZM153.914 63.9857L152.912 64.9879L152.922 64.9981L152.933 65.0081L153.914 63.9857ZM155.932 65.5482L155.161 66.7372L155.172 66.7447L155.184 66.7519L155.932 65.5482ZM158.732 67.1432L159.408 65.8975L159.396 65.8912L158.732 67.1432ZM162.475 69.1614L161.808 70.4121L161.82 70.418L162.475 69.1614ZM164.624 70.3984L163.811 71.5595L163.823 71.5682L163.836 71.5766L164.624 70.3984ZM168.563 82.5078L167.37 81.7414L167.367 81.7469L168.563 82.5078ZM165.535 85.5352L166.307 86.724L166.312 86.7207L165.535 85.5352ZM161.336 87.3255L160.992 85.9505L160.983 85.9528L160.974 85.9551L161.336 87.3255ZM148.315 86.6419L147.877 87.9899L147.897 87.9963L147.917 88.0022L148.315 86.6419ZM146.004 85.7305H144.587V86.6192L145.387 87.0063L146.004 85.7305ZM146.004 75.9974V74.5801H144.587V75.9974H146.004ZM146.382 76.6017L149.865 83.991L152.429 82.7824L148.946 75.3931L146.382 76.6017ZM150.404 84.5938C150.787 84.8296 151.225 85.0304 151.699 85.2049L152.679 82.5451C152.328 82.4158 152.071 82.2911 151.89 82.1796L150.404 84.5938ZM151.762 85.2265C152.216 85.3699 152.699 85.4991 153.209 85.6152L153.838 82.851C153.393 82.75 152.986 82.6405 152.616 82.5235L151.762 85.2265ZM153.209 85.6152C153.731 85.7337 154.263 85.8282 154.805 85.8989L155.172 83.0881C154.715 83.0285 154.271 82.9494 153.838 82.851L153.209 85.6152ZM154.805 85.8989C155.362 85.9715 155.911 86.0085 156.453 86.0085V83.1738C156.04 83.1738 155.613 83.1457 155.172 83.0881L154.805 85.8989ZM156.453 86.0085C157.65 86.0085 158.764 85.8913 159.784 85.6426L159.112 82.8887C158.352 83.074 157.469 83.1738 156.453 83.1738V86.0085ZM159.807 85.6367C160.829 85.3689 161.752 84.992 162.55 84.4864L161.033 82.0917C160.53 82.4108 159.889 82.6849 159.089 82.8945L159.807 85.6367ZM162.578 84.4683C163.39 83.9268 164.051 83.25 164.52 82.4297L162.058 81.0234C161.833 81.4184 161.495 81.7832 161.005 82.1098L162.578 84.4683ZM164.53 82.4112C165.003 81.5543 165.227 80.61 165.227 79.6107H162.393C162.393 80.1738 162.27 80.6402 162.048 81.0419L164.53 82.4112ZM165.227 79.6107C165.227 78.1581 164.613 76.8622 163.579 75.7491L161.502 77.678C162.161 78.3878 162.393 79.0233 162.393 79.6107H165.227ZM163.602 75.775C162.643 74.6889 161.332 73.6975 159.728 72.7811L158.322 75.2423C159.756 76.062 160.789 76.8719 161.478 77.6521L163.602 75.775ZM159.718 72.7755L156.235 70.8224L154.848 73.2948L158.332 75.2479L159.718 72.7755ZM156.202 70.8044C154.997 70.1704 153.871 69.5177 152.823 68.8466L151.295 71.2341C152.416 71.9519 153.612 72.6446 154.882 73.3128L156.202 70.8044ZM152.834 68.8537C151.849 68.2104 150.998 67.5158 150.275 66.773L148.244 68.7505C149.126 69.6569 150.142 70.4814 151.284 71.227L152.834 68.8537ZM150.275 66.773C149.575 66.0544 149.025 65.2693 148.617 64.4158L146.06 65.6388C146.607 66.7819 147.337 67.8197 148.244 68.7505L150.275 66.773ZM148.628 64.4387C148.267 63.6474 148.072 62.7342 148.072 61.6745H145.238C145.238 63.0886 145.499 64.4107 146.049 65.6159L148.628 64.4387ZM148.072 61.6745C148.072 60.3632 148.328 59.2974 148.786 58.4314L146.281 57.1051C145.568 58.4525 145.238 59.9909 145.238 61.6745H148.072ZM148.786 58.4314C149.257 57.5428 149.927 56.8071 150.821 56.2167L149.26 53.8509C147.984 54.6928 146.983 55.78 146.281 57.1051L148.786 58.4314ZM150.837 56.2059C151.752 55.584 152.884 55.103 154.262 54.7879L153.631 52.0245C151.971 52.4039 150.499 53.008 149.243 53.8618L150.837 56.2059ZM154.277 54.7846C155.692 54.4457 157.283 54.2702 159.057 54.2702V51.4355C157.099 51.4355 155.283 51.629 153.617 52.0279L154.277 54.7846ZM159.057 54.2702C161.765 54.2702 164.482 54.7108 167.212 55.6002L168.09 52.905C165.091 51.928 162.079 51.4355 159.057 51.4355V54.2702ZM166.234 54.233L166.104 63.6405L168.938 63.6798L169.068 54.2722L166.234 54.233ZM167.521 62.2428H166.186V65.0775H167.521V62.2428ZM167.478 63.0774L164.028 55.4276L161.444 56.5932L164.894 64.2429L167.478 63.0774ZM162.921 54.6052C162.088 54.4957 161.36 54.4074 160.738 54.3407L160.436 57.1592C161.029 57.2228 161.734 57.3081 162.551 57.4156L162.921 54.6052ZM160.744 54.3413C160.129 54.273 159.584 54.235 159.122 54.235V57.0696C159.442 57.0696 159.873 57.0967 160.431 57.1586L160.744 54.3413ZM159.122 54.235C157.842 54.235 156.668 54.3886 155.624 54.7276L156.501 57.4234C157.194 57.1982 158.059 57.0696 159.122 57.0696V54.235ZM155.646 54.7209C154.664 55.023 153.788 55.4559 153.056 56.0471L154.837 58.2523C155.234 57.932 155.768 57.6489 156.479 57.4301L155.646 54.7209ZM153.061 56.043C152.375 56.592 151.825 57.2477 151.442 58.0133L153.977 59.281C154.159 58.9181 154.433 58.5755 154.832 58.2565L153.061 56.043ZM151.423 58.0532C151.078 58.7993 150.902 59.5875 150.902 60.4049H153.736C153.736 60.0071 153.82 59.6234 153.997 59.2411L151.423 58.0532ZM150.902 60.4049C150.902 61.2961 151.065 62.1464 151.414 62.9337L154.005 61.7824C153.834 61.3978 153.736 60.946 153.736 60.4049H150.902ZM151.442 62.9919C151.803 63.713 152.301 64.3769 152.912 64.9879L154.916 62.9835C154.486 62.5527 154.181 62.1315 153.977 61.7242L151.442 62.9919ZM152.933 65.0081C153.554 65.6051 154.302 66.1801 155.161 66.7372L156.704 64.3591C155.957 63.8745 155.359 63.4079 154.896 62.9632L152.933 65.0081ZM155.184 66.7519C156.021 67.2719 156.983 67.8197 158.067 68.3952L159.396 65.8912C158.354 65.3383 157.45 64.8227 156.681 64.3445L155.184 66.7519ZM158.056 68.3888C159.576 69.2143 160.827 69.8889 161.808 70.412L163.142 67.9109C162.17 67.3923 160.925 66.7214 159.408 65.8976L158.056 68.3888ZM161.82 70.418C162.81 70.9347 163.457 71.3118 163.811 71.5595L165.436 69.2373C164.922 68.8775 164.137 68.4299 163.131 67.9049L161.82 70.418ZM163.836 71.5766C167.013 73.7011 168.317 75.9432 168.317 78.276H171.152C171.152 74.6627 169.049 71.653 165.412 69.2203L163.836 71.5766ZM168.317 78.276C168.317 79.6415 167.988 80.7797 167.37 81.7414L169.755 83.2742C170.699 81.8053 171.152 80.1223 171.152 78.276H168.317ZM167.367 81.7469C166.722 82.7601 165.86 83.628 164.758 84.3496L166.312 86.7207C167.728 85.793 168.884 84.6426 169.758 83.2687L167.367 81.7469ZM164.763 84.3463C163.669 85.0565 162.417 85.5944 160.992 85.9505L161.68 88.7005C163.38 88.2754 164.927 87.6197 166.307 86.724L164.763 84.3463ZM160.974 85.9551C159.527 86.3369 158.076 86.5267 156.616 86.5267V89.3613C158.325 89.3613 160.019 89.1388 161.698 88.6959L160.974 85.9551ZM156.616 86.5267C155.853 86.5267 155.017 86.4764 154.107 86.373L153.787 89.1895C154.786 89.3031 155.73 89.3613 156.616 89.3613V86.5267ZM154.107 86.373C153.194 86.2693 152.28 86.124 151.366 85.937L150.798 88.7141C151.793 88.9177 152.79 89.0762 153.787 89.1895L154.107 86.373ZM151.366 85.937C150.448 85.7491 149.564 85.5305 148.713 85.2817L147.917 88.0022C148.846 88.2742 149.807 88.5113 150.798 88.7141L151.366 85.937ZM148.753 85.294C147.934 85.0276 147.225 84.7468 146.621 84.4547L145.387 87.0063C146.128 87.3652 146.961 87.692 147.877 87.9899L148.753 85.294ZM147.421 85.7305V75.9974H144.587V85.7305H147.421ZM146.004 77.4147H147.664V74.5801H146.004V77.4147ZM192.716 102.332H194.134V101.297L193.148 100.982L192.716 102.332ZM192.716 103.667V105.084H194.134V103.667H192.716ZM173.38 103.667H171.963V105.084H173.38V103.667ZM173.38 102.332L172.866 101.011L171.963 101.363V102.332H173.38ZM179.402 99.9883L179.916 101.309L180.82 100.958V99.9883H179.402ZM179.402 58.875H180.82V57.9057L179.916 57.5542L179.402 58.875ZM173.38 56.5312H171.963V57.5005L172.866 57.852L173.38 56.5312ZM173.38 55.1966L173.093 53.8087L171.963 54.0425V55.1966H173.38ZM184.708 52.8528L185.711 51.8506L185.17 51.31L184.421 51.4649L184.708 52.8528ZM185.392 53.5364H186.809V52.9494L186.394 52.5342L185.392 53.5364ZM185.392 56.8568H183.975V60.8522L186.492 57.7499L185.392 56.8568ZM199.422 54.0898L198.801 55.364L198.811 55.3687L198.821 55.3733L199.422 54.0898ZM203.979 57.5078L202.924 58.4542L202.931 58.4624L202.939 58.4704L203.979 57.5078ZM207.202 63.0417L205.868 63.5208L205.872 63.5322L207.202 63.0417ZM203.393 83.7448L204.333 84.8058L204.334 84.8049L203.393 83.7448ZM198.348 86.8047L198.833 88.1362L198.84 88.1337L198.847 88.1311L198.348 86.8047ZM185.392 86.4141L185.952 85.112L183.975 84.2618V86.4141H185.392ZM185.392 99.9883H183.975V101.023L184.96 101.338L185.392 99.9883ZM185.392 59.7864L184.289 58.8959L183.975 59.2855V59.7864H185.392ZM185.392 80.457H183.975V80.7968L184.129 81.0997L185.392 80.457ZM188.257 83.3867L187.565 84.6237L187.574 84.6286L188.257 83.3867ZM201.147 75.8021L202.532 76.1016L202.533 76.0978L201.147 75.8021ZM191.299 102.332V103.667H194.134V102.332H191.299ZM192.716 102.249H173.38V105.084H192.716V102.249ZM174.798 103.667V102.332H171.963V103.667H174.798ZM173.894 103.653L179.916 101.309L178.888 98.6675L172.866 101.011L173.894 103.653ZM180.82 99.9883V58.875H177.985V99.9883H180.82ZM179.916 57.5542L173.894 55.2104L172.866 57.852L178.888 60.1958L179.916 57.5542ZM174.798 56.5312V55.1966H171.963V56.5312H174.798ZM173.667 56.5845L184.996 54.2408L184.421 51.4649L173.093 53.8087L173.667 56.5845ZM183.706 53.855L184.39 54.5386L186.394 52.5342L185.711 51.8506L183.706 53.855ZM183.975 53.5364V56.8568H186.809V53.5364H183.975ZM186.492 57.7499C187.601 56.3839 188.726 55.5114 189.849 55.0376L188.747 52.4259C187.093 53.124 185.613 54.3348 184.291 55.9636L186.492 57.7499ZM189.849 55.0376C191.027 54.5405 192.46 54.2702 194.181 54.2702V51.4355C192.169 51.4355 190.347 51.7511 188.747 52.4259L189.849 55.0376ZM194.181 54.2702C195.757 54.2702 197.293 54.6291 198.801 55.364L200.043 52.8157C198.166 51.9012 196.207 51.4355 194.181 51.4355V54.2702ZM198.821 55.3733C200.355 56.0918 201.721 57.1134 202.924 58.4542L205.034 56.5614C203.589 54.9508 201.918 53.6938 200.023 52.8063L198.821 55.3733ZM202.939 58.4704C204.132 59.7597 205.117 61.4299 205.868 63.5208L208.536 62.5625C207.681 60.1829 206.517 58.1638 205.019 56.5452L202.939 58.4704ZM205.872 63.5322C206.633 65.5952 207.022 67.8578 207.022 70.3333H209.856C209.856 67.5571 209.42 64.9586 208.532 62.5511L205.872 63.5322ZM207.022 70.3333C207.022 73.1628 206.588 75.6171 205.754 77.7214L208.389 78.7656C209.378 76.2692 209.856 73.45 209.856 70.3333H207.022ZM205.754 77.7214C204.908 79.8565 203.797 81.4916 202.453 82.6846L204.334 84.8049C206.071 83.2636 207.412 81.2312 208.389 78.7656L205.754 77.7214ZM202.454 82.6838C201.06 83.9181 199.526 84.8465 197.848 85.4782L198.847 88.1311C200.858 87.374 202.688 86.2624 204.333 84.8058L202.454 82.6838ZM197.862 85.4732C196.179 86.0869 194.402 86.3965 192.521 86.3965V89.2311C194.72 89.2311 196.827 88.8679 198.833 88.1362L197.862 85.4732ZM192.521 86.3965C190.113 86.3965 187.929 85.9623 185.952 85.112L184.832 87.7161C187.195 88.7322 189.764 89.2311 192.521 89.2311V86.3965ZM183.975 86.4141V99.9883H186.809V86.4141H183.975ZM184.96 101.338L192.284 103.682L193.148 100.982L185.824 98.6384L184.96 101.338ZM192.781 54.7884C191.189 54.7884 189.636 55.1566 188.136 55.8697L189.353 58.4298C190.501 57.8842 191.64 57.623 192.781 57.623V54.7884ZM188.136 55.8697C186.623 56.5892 185.336 57.6004 184.289 58.8959L186.495 60.677C187.271 59.7155 188.219 58.9689 189.353 58.4298L188.136 55.8697ZM183.975 59.7864V80.457H186.809V59.7864H183.975ZM184.129 81.0997C184.893 82.6017 186.054 83.7787 187.565 84.6237L188.948 82.1497C187.898 81.5625 187.15 80.7863 186.655 79.8143L184.129 81.0997ZM187.574 84.6286C189.093 85.4642 190.75 85.8783 192.521 85.8783V83.0436C191.21 83.0436 190.025 82.7416 188.94 82.1448L187.574 84.6286ZM192.521 85.8783C193.611 85.8783 194.663 85.7002 195.669 85.3392L194.711 82.6712C194.024 82.9178 193.297 83.0436 192.521 83.0436V85.8783ZM195.669 85.3392C196.717 84.9631 197.695 84.3469 198.607 83.533L196.721 81.4175C196.027 82.0359 195.356 82.4396 194.711 82.6712L195.669 85.3392ZM198.607 83.533C199.545 82.6973 200.335 81.6761 200.989 80.49L198.506 79.122C197.988 80.0627 197.39 80.821 196.721 81.4175L198.607 83.533ZM200.989 80.49C201.66 79.2721 202.166 77.7979 202.532 76.1016L199.762 75.5025C199.434 77.0181 199.007 78.2131 198.506 79.122L200.989 80.49ZM202.533 76.0978C202.905 74.355 203.085 72.4307 203.085 70.3333H200.251C200.251 72.2724 200.084 73.9939 199.761 75.5064L202.533 76.0978ZM203.085 70.3333C203.085 65.9613 202.276 62.2764 200.54 59.3828L198.109 60.8412C199.498 63.1558 200.251 66.2852 200.251 70.3333H203.085ZM200.54 59.3828C198.747 56.3954 196.128 54.7884 192.781 54.7884V57.623C195.034 57.623 196.776 58.6201 198.109 60.8412L200.54 59.3828ZM242.098 57.7031L241.038 58.6438L241.044 58.6512L242.098 57.7031ZM245.223 63.2044L243.878 63.6526L243.882 63.6648L245.223 63.2044ZM215.535 77.4622L214.191 77.9104L214.192 77.9145L215.535 77.4622ZM215.535 63.2044L214.195 62.744L214.191 62.7562L215.535 63.2044ZM218.693 57.7031L219.746 58.6513L219.753 58.6438L218.693 57.7031ZM223.315 59.7539L224.522 60.4972L224.524 60.4945L223.315 59.7539ZM221.427 76.2578L220.046 76.5741L220.048 76.5839L220.05 76.5937L221.427 76.2578ZM223.283 80.8802L222.076 81.6241L222.084 81.636L222.091 81.6477L223.283 80.8802ZM237.606 80.8802L236.417 80.1078L236.414 80.1128L237.606 80.8802ZM239.526 76.2578L238.152 75.9101L238.149 75.922L239.526 76.2578ZM239.526 64.4739L238.148 64.806L238.151 64.8158L238.153 64.8256L239.526 64.4739ZM237.606 59.8515L236.408 60.6099L236.416 60.6216L236.423 60.6331L237.606 59.8515ZM234.546 56.8242L233.81 58.0357L233.818 58.0405L233.826 58.0453L234.546 56.8242ZM230.412 54.2702C232.722 54.2702 234.753 54.6649 236.526 55.4251L237.643 52.8196C235.467 51.8871 233.049 51.4355 230.412 51.4355V54.2702ZM236.526 55.4251C238.318 56.1928 239.815 57.2659 241.038 58.6438L243.158 56.7624C241.646 55.0587 239.801 53.7446 237.643 52.8196L236.526 55.4251ZM241.044 58.6512C242.268 60.0105 243.217 61.669 243.878 63.6526L246.567 62.7562C245.796 60.443 244.662 58.4339 243.151 56.755L241.044 58.6512ZM243.882 63.6648C244.562 65.6451 244.912 67.8632 244.912 70.3333H247.747C247.747 67.5951 247.359 65.0606 246.563 62.744L243.882 63.6648ZM244.912 70.3333C244.912 72.7845 244.572 74.9963 243.911 76.9815L246.6 77.8779C247.37 75.5662 247.747 73.0471 247.747 70.3333H244.912ZM243.911 76.9815C243.249 78.9664 242.298 80.639 241.07 82.0229L243.19 83.9042C244.697 82.2065 245.829 80.1899 246.6 77.8779L243.911 76.9815ZM241.07 82.0229C239.848 83.4007 238.35 84.4738 236.559 85.2415L237.676 87.847C239.834 86.922 241.679 85.6079 243.19 83.9042L241.07 82.0229ZM236.559 85.2415C234.787 86.0011 232.746 86.3965 230.412 86.3965V89.2311C233.068 89.2311 235.498 88.7802 237.676 87.847L236.559 85.2415ZM230.412 86.3965C228.054 86.3965 226.002 86.0005 224.232 85.2415L223.115 87.847C225.294 88.7808 227.735 89.2311 230.412 89.2311V86.3965ZM224.232 85.2415C222.44 84.4738 220.943 83.4007 219.72 82.0229L217.6 83.9042C219.112 85.6079 220.957 86.922 223.115 87.847L224.232 85.2415ZM219.72 82.0229C218.49 80.6365 217.539 78.9728 216.878 77.0099L214.192 77.9145C214.963 80.2052 216.096 82.209 217.6 83.9042L219.72 82.0229ZM216.88 77.014C216.218 75.03 215.878 72.8076 215.878 70.3333H213.044C213.044 73.0674 213.42 75.5976 214.191 77.9104L216.88 77.014ZM215.878 70.3333C215.878 67.8591 216.218 65.6367 216.88 63.6526L214.191 62.7562C213.42 65.069 213.044 67.5992 213.044 70.3333H215.878ZM216.876 63.6648C217.559 61.6764 218.52 60.0137 219.746 58.6512L217.639 56.755C216.131 58.4307 214.988 60.4355 214.195 62.744L216.876 63.6648ZM219.753 58.6438C220.976 57.2659 222.473 56.1928 224.264 55.4251L223.147 52.8196C220.989 53.7446 219.144 55.0587 217.633 56.7624L219.753 58.6438ZM224.264 55.4251C226.036 54.6656 228.077 54.2702 230.412 54.2702V51.4355C227.755 51.4355 225.325 51.8865 223.147 52.8196L224.264 55.4251ZM222.108 59.0105C220.258 62.0137 219.391 65.8223 219.391 70.3333H222.226C222.226 66.1638 223.03 62.9194 224.522 60.4972L222.108 59.0105ZM219.391 70.3333C219.391 72.5714 219.606 74.6539 220.046 76.5741L222.809 75.9415C222.424 74.2592 222.226 72.3921 222.226 70.3333H219.391ZM220.05 76.5937C220.513 78.4897 221.182 80.1737 222.076 81.6241L224.489 80.1363C223.778 78.9825 223.21 77.5849 222.804 75.922L220.05 76.5937ZM222.091 81.6477C223.022 83.0933 224.184 84.2521 225.581 85.0903L227.039 82.6597C226.049 82.0656 225.192 81.2278 224.474 80.1128L222.091 81.6477ZM225.581 85.0903C227.018 85.9525 228.642 86.3665 230.412 86.3665V83.5319C229.099 83.5319 227.989 83.2298 227.039 82.6597L225.581 85.0903ZM230.412 86.3665C232.181 86.3665 233.812 85.9524 235.265 85.0961L233.826 82.6539C232.849 83.2299 231.723 83.5319 230.412 83.5319V86.3665ZM235.265 85.0961C236.686 84.2588 237.862 83.0989 238.797 81.6477L236.414 80.1128C235.699 81.2223 234.836 82.0589 233.826 82.6539L235.265 85.0961ZM238.794 81.6526C239.741 80.1951 240.438 78.5011 240.903 76.5937L238.149 75.922C237.746 77.5735 237.162 78.9612 236.417 80.1078L238.794 81.6526ZM240.9 76.6054C241.389 74.6745 241.627 72.5812 241.627 70.3333H238.792C238.792 72.3824 238.575 74.2387 238.152 75.9102L240.9 76.6054ZM241.627 70.3333C241.627 68.1062 241.388 66.0331 240.899 64.1223L238.153 64.8256C238.575 66.4738 238.792 68.307 238.792 70.3333H241.627ZM240.904 64.1419C240.439 62.2128 239.742 60.5129 238.788 59.07L236.423 60.6331C237.162 61.751 237.745 63.1326 238.148 64.806L240.904 64.1419ZM238.803 59.0932C237.869 57.6191 236.692 56.4437 235.265 55.6031L233.826 58.0453C234.83 58.637 235.692 59.4798 236.408 60.6099L238.803 59.0932ZM235.281 55.6127C233.826 54.729 232.189 54.3001 230.412 54.3001V57.1348C231.715 57.1348 232.835 57.4437 233.81 58.0357L235.281 55.6127ZM230.412 54.3001C226.822 54.3001 224.006 55.9143 222.107 59.0132L224.524 60.4945C225.923 58.2115 227.837 57.1348 230.412 57.1348V54.3001ZM262.345 58.1914L262.086 56.798L260.928 57.0134V58.1914H262.345ZM262.671 80.0338L261.286 80.3349L261.289 80.3492L261.292 80.3635L262.671 80.0338ZM263.68 82.2799L262.61 83.21L262.632 83.2348L262.655 83.2586L263.68 82.2799ZM265.112 83.2891L264.596 84.6089L264.621 84.6188L264.646 84.6277L265.112 83.2891ZM270.158 83.224L270.501 84.599L270.513 84.596L270.525 84.5929L270.158 83.224ZM273.022 81.9219L274.298 81.304L273.614 79.8916L272.278 80.7157L273.022 81.9219ZM274.031 84.0052L274.936 85.0959L275.791 84.3868L275.307 83.3874L274.031 84.0052ZM258.569 85.3073L257.501 86.2387L257.507 86.2455L258.569 85.3073ZM256.356 58.1914H257.773V57.1104L256.73 56.8245L256.356 58.1914ZM250.301 56.5312H248.884V57.6122L249.926 57.8981L250.301 56.5312ZM250.301 55.1966L250.008 53.8099L248.884 54.0475V55.1966H250.301ZM256.616 53.862L256.909 55.2486L257.76 55.0689L257.985 54.229L256.616 53.862ZM259.025 44.8776V43.4603H257.937L257.656 44.5105L259.025 44.8776ZM262.345 44.8776H263.762V43.4603H262.345V44.8776ZM262.345 53.862H260.928V55.2793H262.345V53.862ZM271.883 53.862L272.343 52.5212L272.119 52.4446H271.883V53.862ZM273.022 54.2526H274.44V53.2402L273.482 52.9119L273.022 54.2526ZM273.022 56.2057L273.281 57.5991L274.44 57.3837V56.2057H273.022ZM260.928 58.1914V76.3229H263.762V58.1914H260.928ZM260.928 76.3229C260.928 77.8593 261.04 79.2048 261.286 80.3349L264.056 79.7328C263.867 78.8664 263.762 77.7379 263.762 76.3229H260.928ZM261.292 80.3635C261.557 81.4728 261.966 82.4692 262.61 83.21L264.749 81.3499C264.525 81.0925 264.261 80.5914 264.049 79.7042L261.292 80.3635ZM262.655 83.2586C263.221 83.8517 263.865 84.323 264.596 84.6089L265.629 81.9692C265.361 81.8645 265.05 81.6631 264.705 81.3013L262.655 83.2586ZM264.646 84.6277C265.334 84.8669 266.096 84.9668 266.902 84.9668V82.1322C266.32 82.1322 265.888 82.0585 265.578 81.9504L264.646 84.6277ZM266.902 84.9668C268.273 84.9668 269.483 84.8536 270.501 84.599L269.814 81.8489C269.096 82.0283 268.136 82.1322 266.902 82.1322V84.9668ZM270.525 84.5929C271.581 84.3096 272.663 83.8092 273.766 83.1281L272.278 80.7157C271.342 81.2932 270.514 81.6608 269.79 81.855L270.525 84.5929ZM271.747 82.5397L272.756 84.6231L275.307 83.3874L274.298 81.304L271.747 82.5397ZM273.126 82.9145C270.296 85.263 267.257 86.3965 263.973 86.3965V89.2311C267.98 89.2311 271.647 87.8256 274.936 85.0959L273.126 82.9145ZM263.973 86.3965C262.274 86.3965 260.853 85.7522 259.631 84.3691L257.507 86.2455C259.237 88.2044 261.418 89.2311 263.973 89.2311V86.3965ZM259.637 84.3759C258.456 83.0203 257.773 81.0284 257.773 78.2109H254.938C254.938 81.4698 255.731 84.2089 257.501 86.2387L259.637 84.3759ZM257.773 78.2109V58.1914H254.938V78.2109H257.773ZM256.73 56.8245L250.676 55.1644L249.926 57.8981L255.981 59.5583L256.73 56.8245ZM251.718 56.5312V55.1966H248.884V56.5312H251.718ZM250.594 56.5833L256.909 55.2486L256.323 52.4753L250.008 53.8099L250.594 56.5833ZM257.985 54.229L260.394 45.2446L257.656 44.5105L255.247 53.4949L257.985 54.229ZM259.025 46.2949H262.345V43.4603H259.025V46.2949ZM260.928 44.8776V53.862H263.762V44.8776H260.928ZM262.345 55.2793H271.883V52.4446H262.345V55.2793ZM271.423 55.2027L272.563 55.5933L273.482 52.9119L272.343 52.5212L271.423 55.2027ZM271.605 54.2526V56.2057H274.44V54.2526H271.605ZM272.763 54.8123L262.086 56.798L262.604 59.5848L273.281 57.5991L272.763 54.8123ZM289.494 58.1914L289.234 56.798L288.076 57.0134V58.1914H289.494ZM289.819 80.0338L288.434 80.3349L288.437 80.3492L288.441 80.3635L289.819 80.0338ZM290.828 82.2799L289.759 83.21L289.78 83.2348L289.803 83.2586L290.828 82.2799ZM292.261 83.2891L291.744 84.6089L291.769 84.6188L291.795 84.6277L292.261 83.2891ZM297.306 83.224L297.65 84.599L297.662 84.596L297.673 84.5929L297.306 83.224ZM300.171 81.9219L301.446 81.304L300.762 79.8916L299.426 80.7157L300.171 81.9219ZM301.18 84.0052L302.085 85.0959L302.939 84.3868L302.455 83.3874L301.18 84.0052ZM285.718 85.3073L284.649 86.2387L284.655 86.2455L285.718 85.3073ZM283.504 58.1914H284.921V57.1104L283.879 56.8245L283.504 58.1914ZM277.449 56.5312H276.032V57.6122L277.075 57.8981L277.449 56.5312ZM277.449 55.1966L277.156 53.8099L276.032 54.0475V55.1966H277.449ZM283.764 53.862L284.057 55.2486L284.908 55.0689L285.133 54.229L283.764 53.862ZM286.173 44.8776V43.4603H285.086L284.804 44.5105L286.173 44.8776ZM289.494 44.8776H290.911V43.4603H289.494V44.8776ZM289.494 53.862H288.076V55.2793H289.494V53.862ZM299.031 53.862L299.491 52.5212L299.268 52.4446H299.031V53.862ZM300.171 54.2526H301.588V53.2402L300.63 52.9119L300.171 54.2526ZM300.171 56.2057L300.43 57.5991L301.588 57.3837V56.2057H300.171ZM288.076 58.1914V76.3229H290.911V58.1914H288.076ZM288.076 76.3229C288.076 77.8593 288.188 79.2048 288.434 80.3349L291.204 79.7328C291.016 78.8664 290.911 77.7379 290.911 76.3229H288.076ZM288.441 80.3635C288.706 81.4728 289.115 82.4692 289.759 83.21L291.898 81.3499C291.674 81.0925 291.41 80.5914 291.198 79.7042L288.441 80.3635ZM289.803 83.2586C290.369 83.8517 291.013 84.323 291.744 84.6089L292.777 81.9692C292.51 81.8645 292.199 81.6631 291.853 81.3013L289.803 83.2586ZM291.795 84.6277C292.482 84.8669 293.245 84.9668 294.051 84.9668V82.1322C293.468 82.1322 293.037 82.0585 292.726 81.9504L291.795 84.6277ZM294.051 84.9668C295.421 84.9668 296.631 84.8536 297.65 84.599L296.962 81.8489C296.245 82.0283 295.285 82.1322 294.051 82.1322V84.9668ZM297.673 84.5929C298.729 84.3096 299.811 83.8092 300.915 83.1281L299.426 80.7157C298.49 81.2932 297.663 81.6608 296.939 81.855L297.673 84.5929ZM298.895 82.5397L299.904 84.6231L302.455 83.3874L301.446 81.304L298.895 82.5397ZM300.275 82.9145C297.445 85.263 294.406 86.3965 291.121 86.3965V89.2311C295.128 89.2311 298.795 87.8256 302.085 85.0959L300.275 82.9145ZM291.121 86.3965C289.423 86.3965 288.001 85.7522 286.78 84.3691L284.655 86.2455C286.385 88.2044 288.566 89.2311 291.121 89.2311V86.3965ZM286.786 84.3759C285.604 83.0203 284.921 81.0284 284.921 78.2109H282.087C282.087 81.4698 282.88 84.2089 284.649 86.2387L286.786 84.3759ZM284.921 78.2109V58.1914H282.087V78.2109H284.921ZM283.879 56.8245L277.824 55.1644L277.075 57.8981L283.129 59.5583L283.879 56.8245ZM278.867 56.5312V55.1966H276.032V56.5312H278.867ZM277.742 56.5833L284.057 55.2486L283.471 52.4753L277.156 53.8099L277.742 56.5833ZM285.133 54.229L287.542 45.2446L284.804 44.5105L282.395 53.4949L285.133 54.229ZM286.173 46.2949H289.494V43.4603H286.173V46.2949ZM288.076 44.8776V53.862H290.911V44.8776H288.076ZM289.494 55.2793H299.031V52.4446H289.494V55.2793ZM298.572 55.2027L299.711 55.5933L300.63 52.9119L299.491 52.5212L298.572 55.2027ZM298.753 54.2526V56.2057H301.588V54.2526H298.753ZM299.912 54.8123L289.234 56.798L289.753 59.5848L300.43 57.5991L299.912 54.8123ZM334.448 70.5286V71.946H335.035L335.45 71.5308L334.448 70.5286ZM313.387 70.5286V69.1113H311.957L311.97 70.5413L313.387 70.5286ZM320.939 83.3542L320.472 84.6923L320.478 84.6945L320.939 83.3542ZM332.723 81.7917L333.982 81.1411L333.295 79.8109L332.004 80.57L332.723 81.7917ZM333.732 83.7448L334.669 84.8083L335.499 84.077L334.991 83.0942L333.732 83.7448ZM328.263 87L328.667 88.3584L328.675 88.3562L328.682 88.354L328.263 87ZM316.219 86.5443L315.621 87.8294L315.633 87.8351L316.219 86.5443ZM311.303 82.9961L310.265 83.9605L310.272 83.9679L311.303 82.9961ZM307.56 63.7578L306.208 63.3317L306.205 63.341L307.56 63.7578ZM313.582 55.4245L312.796 54.2451L312.787 54.251L313.582 55.4245ZM317.749 53.4713L318.127 54.8372L318.134 54.8353L318.141 54.8333L317.749 53.4713ZM327.221 53.8945L326.646 55.1897L326.657 55.1945L326.667 55.1991L327.221 53.8945ZM331.421 56.9219L330.369 57.8719L330.377 57.8808L330.385 57.8895L331.421 56.9219ZM334.318 62.1627L332.968 62.5947L332.972 62.6069L334.318 62.1627ZM335.392 69.5846L336.394 70.5868L336.809 70.1717V69.5846H335.392ZM316.251 58.9726L315.122 58.1163L315.116 58.1242L316.251 58.9726ZM313.517 67.0781L312.107 66.9353L311.949 68.4954H313.517V67.0781ZM329.044 67.0781V68.4954H330.462V67.0781H329.044ZM334.448 69.1113H313.387V71.946H334.448V69.1113ZM311.97 70.5413C311.992 73.0952 312.357 75.3816 313.101 77.3722L315.756 76.3804C315.154 74.7686 314.825 72.8232 314.804 70.516L311.97 70.5413ZM313.101 77.3722C313.835 79.337 314.861 80.961 316.222 82.1685L318.103 80.0476C317.165 79.2152 316.368 78.018 315.756 76.3804L313.101 77.3722ZM316.222 82.1685C317.502 83.3033 318.92 84.1503 320.472 84.6922L321.406 82.0161C320.224 81.6032 319.124 80.9528 318.103 80.0476L316.222 82.1685ZM320.478 84.6945C322.03 85.2281 323.696 85.4876 325.464 85.4876V82.653C323.976 82.653 322.625 82.4351 321.4 82.0138L320.478 84.6945ZM325.464 85.4876C328.043 85.4876 330.71 84.6198 333.441 83.0133L332.004 80.57C329.57 82.0017 327.398 82.653 325.464 82.653V85.4876ZM331.464 82.4422L332.473 84.3954L334.991 83.0942L333.982 81.1411L331.464 82.4422ZM332.795 82.6813C331.083 84.1897 329.431 85.1548 327.844 85.646L328.682 88.354C330.741 87.7167 332.735 86.5116 334.669 84.8083L332.795 82.6813ZM327.859 85.6416C326.192 86.1376 324.26 86.3965 322.046 86.3965V89.2311C324.476 89.2311 326.688 88.9475 328.667 88.3584L327.859 85.6416ZM322.046 86.3965C320.233 86.3965 318.49 86.0178 316.804 85.2535L315.633 87.8351C317.681 88.7635 319.822 89.2311 322.046 89.2311V86.3965ZM316.817 85.2592C315.113 84.467 313.622 83.3905 312.335 82.0242L310.272 83.9679C311.806 85.5964 313.592 86.8855 315.621 87.8294L316.817 85.2592ZM312.342 82.0317C311.069 80.6609 310.03 78.9653 309.24 76.9191L306.596 77.9402C307.499 80.2777 308.717 82.2931 310.265 83.9605L312.342 82.0317ZM309.24 76.9191C308.462 74.9029 308.066 72.712 308.066 70.3333H305.231C305.231 73.0328 305.682 75.5728 306.596 77.9402L309.24 76.9191ZM308.066 70.3333C308.066 68.0429 308.355 65.9942 308.915 64.1746L306.205 63.341C305.55 65.4711 305.231 67.806 305.231 70.3333H308.066ZM308.912 64.1839C309.503 62.3075 310.26 60.8059 311.157 59.6424L308.911 57.9123C307.768 59.3964 306.875 61.215 306.208 63.3317L308.912 64.1839ZM311.157 59.6424C312.087 58.4348 313.16 57.4223 314.377 56.5979L312.787 54.251C311.313 55.2496 310.021 56.4723 308.911 57.9123L311.157 59.6424ZM314.368 56.6037C315.625 55.7656 316.878 55.1831 318.127 54.8372L317.371 52.1054C315.798 52.5408 314.273 53.2604 312.796 54.2452L314.368 56.6037ZM318.141 54.8333C319.447 54.4573 320.769 54.2702 322.111 54.2702V51.4355C320.501 51.4355 318.915 51.6607 317.357 52.1093L318.141 54.8333ZM322.111 54.2702C323.773 54.2702 325.278 54.582 326.646 55.1897L327.797 52.5993C326.039 51.8182 324.138 51.4355 322.111 51.4355V54.2702ZM326.667 55.1991C328.052 55.787 329.284 56.671 330.369 57.8719L332.472 55.9718C331.127 54.4817 329.56 53.3476 327.775 52.5899L326.667 55.1991ZM330.385 57.8895C331.447 59.026 332.321 60.5742 332.968 62.5947L335.668 61.7308C334.925 59.411 333.868 57.4653 332.456 55.9542L330.385 57.8895ZM332.972 62.6069C333.632 64.6067 333.975 66.9264 333.975 69.5846H336.809C336.809 66.6873 336.436 64.0591 335.664 61.7186L332.972 62.6069ZM334.39 68.5824L333.446 69.5264L335.45 71.5308L336.394 70.5868L334.39 68.5824ZM322.241 54.5931C319.305 54.5931 316.89 55.7852 315.122 58.1163L317.381 59.829C318.608 58.2104 320.185 57.4277 322.241 57.4277V54.5931ZM315.116 58.1242C313.437 60.3712 312.47 63.3478 312.107 66.9353L314.927 67.2209C315.258 63.9508 316.114 61.5237 317.387 59.821L315.116 58.1242ZM313.517 68.4954H329.044V65.6608H313.517V68.4954ZM330.462 67.0781C330.462 63.4733 329.858 60.4708 328.502 58.2109L326.071 59.6693C327.059 61.3156 327.627 63.7384 327.627 67.0781H330.462ZM328.502 58.2109C327.086 55.8513 324.954 54.5931 322.241 54.5931V57.4277C323.912 57.4277 325.143 58.1226 326.071 59.6693L328.502 58.2109ZM360.099 85.6654H361.516V84.616L360.513 84.3097L360.099 85.6654ZM360.099 87V88.4173H361.516V87H360.099ZM340.438 87H339.02V88.4173H340.438V87ZM340.438 85.6654L339.921 84.3455L339.02 84.698V85.6654H340.438ZM346.427 83.3216L346.944 84.6415L347.845 84.289V83.3216H346.427ZM346.427 58.875H347.845V57.9076L346.944 57.5551L346.427 58.875ZM340.438 56.5312H339.02V57.4986L339.921 57.8511L340.438 56.5312ZM340.438 55.1966L340.15 53.8087L339.02 54.0425V55.1966H340.438ZM351.766 52.8528L352.792 51.8754L352.249 51.3055L351.479 51.4649L351.766 52.8528ZM352.417 53.5364H353.834V52.9695L353.443 52.559L352.417 53.5364ZM352.417 57.5403H350.999V60.8354L353.392 58.5693L352.417 57.5403ZM365.438 52.8528H366.855V51.4355H365.438V52.8528ZM365.438 60.0794L365.896 61.4207L366.855 61.0931V60.0794H365.438ZM364.103 60.5351L363.422 61.7781L363.97 62.0783L364.561 61.8764L364.103 60.5351ZM359.35 57.931L360.031 56.688L359.713 56.5136H359.35V57.931ZM355.998 58.582L356.439 59.9289L356.449 59.9255L356.46 59.9219L355.998 58.582ZM352.417 60.4049L351.595 59.2501L350.999 59.6739V60.4049H352.417ZM352.417 83.3216H350.999V84.371L352.003 84.6772L352.417 83.3216ZM358.682 85.6654V87H361.516V85.6654H358.682ZM360.099 85.5827H340.438V88.4173H360.099V85.5827ZM341.855 87V85.6654H339.02V87H341.855ZM340.954 86.9852L346.944 84.6415L345.911 82.0017L339.921 84.3455L340.954 86.9852ZM347.845 83.3216V58.875H345.01V83.3216H347.845ZM346.944 57.5551L340.954 55.2114L339.921 57.8511L345.911 60.1949L346.944 57.5551ZM341.855 56.5312V55.1966H339.02V56.5312H341.855ZM340.725 56.5845L352.053 54.2408L351.479 51.4649L340.15 53.8087L340.725 56.5845ZM350.739 53.8303L351.39 54.5139L353.443 52.559L352.792 51.8754L350.739 53.8303ZM350.999 53.5364V57.5403H353.834V53.5364H350.999ZM353.392 58.5693C356.379 55.7387 360.347 54.2702 365.438 54.2702V51.4355C359.764 51.4355 355.051 53.092 351.442 56.5114L353.392 58.5693ZM364.02 52.8528V60.0794H366.855V52.8528H364.02ZM364.98 58.7381L363.645 59.1939L364.561 61.8764L365.896 61.4207L364.98 58.7381ZM364.784 59.2922L360.031 56.688L358.669 59.1739L363.422 61.7781L364.784 59.2922ZM359.35 56.5136C358.171 56.5136 356.893 56.7742 355.535 57.2421L356.46 59.9219C357.62 59.5218 358.577 59.3483 359.35 59.3483V56.5136ZM355.556 57.2351C354.156 57.6939 352.835 58.3681 351.595 59.2501L353.238 61.5598C354.256 60.8358 355.322 60.2948 356.439 59.9289L355.556 57.2351ZM350.999 60.4049V83.3216H353.834V60.4049H350.999ZM352.003 84.6772L359.686 87.021L360.513 84.3097L352.83 81.966L352.003 84.6772Z" fill="black"/>
<defs>
<filter id="filter0_d_84_10703" x="0" y="0" width="134" height="134" filterUnits="userSpaceOnUse" color-interpolation-filters="sRGB">
<feFlood flood-opacity="0" result="BackgroundImageFix"/>
<feColorMatrix in="SourceAlpha" type="matrix" values="0 0 0 0 0 0 0 0 0 0 0 0 0 0 0 0 0 0 127 0" result="hardAlpha"/>
<feOffset dy="4"/>
<feGaussianBlur stdDeviation="2"/>
<feComposite in2="hardAlpha" operator="out"/>
<feColorMatrix type="matrix" values="0 0 0 0 0 0 0 0 0 0 0 0 0 0 0 0 0 0 0.25 0"/>
<feBlend mode="normal" in2="BackgroundImageFix" result="effect1_dropShadow_84_10703"/>
<feBlend mode="normal" in="SourceGraphic" in2="effect1_dropShadow_84_10703" result="shape"/>
</filter>
</defs>
</svg>
